<?xml version="1.0" standalone="no"?>
<!DOCTYPE svg PUBLIC "-//W3C//DTD SVG 20010904//EN"
 "http://www.w3.org/TR/2001/REC-SVG-20010904/DTD/svg10.dtd">
<svg version="1.0" xmlns="http://www.w3.org/2000/svg"
 width="260.000000pt" height="260.000000pt" viewBox="0 0 260.000000 260.000000"
 preserveAspectRatio="xMidYMid meet">
<metadata>
Created by potrace 1.14, written by Peter Selinger 2001-2017
</metadata>
<g transform="translate(0.000000,260.000000) scale(0.100000,-0.100000)"
fill="#000000" stroke="none">
<path d="M500 2350 l0 -50 -50 0 -50 0 0 -50 0 -50 -50 0 -50 0 0 -50 0 -50
-50 0 -50 0 0 -100 0 -100 50 0 50 0 0 100 0 100 50 0 50 0 0 -100 0 -100 50
0 50 0 0 100 0 100 100 0 100 0 0 -50 0 -50 -50 0 -50 0 0 -50 0 -50 100 0
100 0 0 50 0 50 100 0 100 0 0 -50 0 -50 50 0 50 0 0 -50 0 -50 50 0 50 0 0
-200 0 -200 -400 0 -400 0 0 -50 0 -50 -50 0 -50 0 0 -50 0 -50 -50 0 -50 0 0
-350 0 -350 50 0 50 0 0 -50 0 -50 50 0 50 0 0 -50 0 -50 50 0 50 0 0 -50 0
-50 100 0 100 0 0 50 0 50 -100 0 -100 0 0 50 0 50 100 0 100 0 0 50 0 50
-100 0 -100 0 0 100 0 100 50 0 50 0 0 -50 0 -50 50 0 50 0 0 100 0 100 -50 0
-50 0 0 100 0 100 50 0 50 0 0 50 0 50 50 0 50 0 0 50 0 50 200 0 200 0 0
-400 0 -400 50 0 50 0 0 -50 0 -50 50 0 50 0 0 -50 0 -50 350 0 350 0 0 50 0
50 50 0 50 0 0 50 0 50 50 0 50 0 0 50 0 50 50 0 50 0 0 100 0 100 -50 0 -50
0 0 -100 0 -100 -50 0 -50 0 0 100 0 100 -50 0 -50 0 0 -100 0 -100 -100 0
-100 0 0 50 0 50 50 0 50 0 0 50 0 50 -100 0 -100 0 0 -50 0 -50 -100 0 -100
0 0 50 0 50 -50 0 -50 0 0 50 0 50 -50 0 -50 0 0 200 0 200 400 0 400 0 0 50
0 50 50 0 50 0 0 50 0 50 50 0 50 0 0 350 0 350 -50 0 -50 0 0 50 0 50 -50 0
-50 0 0 50 0 50 -50 0 -50 0 0 50 0 50 -100 0 -100 0 0 -50 0 -50 100 0 100 0
0 -50 0 -50 -100 0 -100 0 0 -50 0 -50 100 0 100 0 0 -100 0 -100 -50 0 -50 0
0 50 0 50 -50 0 -50 0 0 -100 0 -100 50 0 50 0 0 -100 0 -100 -50 0 -50 0 0
-50 0 -50 -50 0 -50 0 0 -50 0 -50 -200 0 -200 0 0 400 0 400 -50 0 -50 0 0
50 0 50 -50 0 -50 0 0 50 0 50 -350 0 -350 0 0 -50z m0 -200 l0 -50 -50 0 -50
0 0 50 0 50 50 0 50 0 0 -50z m1700 0 l0 -50 -50 0 -50 0 0 50 0 50 50 0 50 0
0 -50z m-1700 -1700 l0 -50 -50 0 -50 0 0 50 0 50 50 0 50 0 0 -50z m1700 0
l0 -50 -50 0 -50 0 0 50 0 50 50 0 50 0 0 -50z"/>
<path d="M1700 2150 l0 -50 50 0 50 0 0 50 0 50 -50 0 -50 0 0 -50z"/>
<path d="M400 1750 l0 -50 50 0 50 0 0 50 0 50 -50 0 -50 0 0 -50z"/>
<path d="M2100 850 l0 -50 50 0 50 0 0 50 0 50 -50 0 -50 0 0 -50z"/>
<path d="M800 450 l0 -50 50 0 50 0 0 50 0 50 -50 0 -50 0 0 -50z"/>
</g>
</svg>
